HIERARCHY
ROOT hip
{
  OFFSET 0 0 0
  CHANNELS 6 Xposition Yposition Zposition Zrotation Yrotation Xrotation
  JOINT abdomen
  {
    OFFSET 0 20.6881 -0.73152
    CHANNELS 3 Zrotation Xrotation Yrotation
    JOINT chest
    {
      OFFSET 0 11.7043 -0.48768
      CHANNELS 3 Zrotation Xrotation Yrotation
      JOINT neck
      {
        OFFSET 0 22.1894 -2.19456
        CHANNELS 3 Zrotation Xrotation Yrotation
        JOINT head
        {
          OFFSET -0.24384 7.07133 1.2192
          CHANNELS 3 Zrotation Xrotation Yrotation
          JOINT leftEye
          {
            OFFSET 4.14528 8.04674 8.04672
            CHANNELS 3 Zrotation Xrotation Yrotation
            End Site
            {
              OFFSET 1 0 0
            }
          }
          JOINT rightEye
          {
            OFFSET -3.6576 8.04674 8.04672
            CHANNELS 3 Zrotation Xrotation Yrotation
            End Site
            {
              OFFSET 1 0 0
            }
          }
        }
      }
      JOINT rCollar
      {
        OFFSET -2.68224 19.2634 -4.8768
        CHANNELS 3 Zrotation Xrotation Yrotation
        JOINT rShldr
        {
          OFFSET -8.77824 -1.95073 1.46304
          CHANNELS 3 Zrotation Xrotation Yrotation
          JOINT rForeArm
          {
            OFFSET -28.1742 -1.7115 0.48768
            CHANNELS 3 Zrotation Xrotation Yrotation
            JOINT rHand
            {
              OFFSET -22.5879 0.773209 7.07136
              CHANNELS 3 Zrotation Xrotation Yrotation
              JOINT rThumb1
              {
                OFFSET -1.2192 -0.487915 3.41376
                CHANNELS 3 Zrotation Xrotation Yrotation
                JOINT rThumb2
                {
                  OFFSET -3.37035 -0.52449 3.41376
                  CHANNELS 3 Zrotation Xrotation Yrotation
                  End Site
                  {
                    OFFSET -1.78271 -1.18214 1.43049
                  }
                }
              }
              JOINT rIndex1
              {
                OFFSET -7.75947 0.938293 5.60832
                CHANNELS 3 Zrotation Xrotation Yrotation
                JOINT rIndex2
                {
                  OFFSET -2.54057 -0.884171 1.56538
                  CHANNELS 3 Zrotation Xrotation Yrotation
                  End Site
                  {
                    OFFSET -1.62519 -0.234802 1.16502
                  }
                }
              }
              JOINT rMid1
              {
                OFFSET -8.24714 1.18213 3.41376
                CHANNELS 3 Zrotation Xrotation Yrotation
                JOINT rMid2
                {
                  OFFSET -3.10165 -0.590103 1.0647
                  CHANNELS 3 Zrotation Xrotation Yrotation
                  End Site
                  {
                    OFFSET -2.48547 -0.328903 0.83742
                  }
                }
              }
              JOINT rRing1
              {
                OFFSET -8.82822 0.546677 1.51678
                CHANNELS 3 Zrotation Xrotation Yrotation
                JOINT rRing2
                {
                  OFFSET -2.60934 -0.819778 -0.0198488
                  CHANNELS 3 Zrotation Xrotation Yrotation
                  End Site
                  {
                    OFFSET -2.33842 -0.294052 0.168128
                  }
                }
              }
              JOINT rPinky1
              {
                OFFSET -8.27202 -0.0477905 -0.4584
                CHANNELS 3 Zrotation Xrotation Yrotation
                JOINT rPinky2
                {
                  OFFSET -1.82734 -0.647385 -0.700984
                  CHANNELS 3 Zrotation Xrotation Yrotation
                  End Site
                  {
                    OFFSET -1.69225 -0.51767 -0.607171
                  }
                }
              }
            }
          }
        }
      }
      JOINT lCollar
      {
        OFFSET 2.68224 19.2634 -4.8768
        CHANNELS 3 Zrotation Xrotation Yrotation
        JOINT lShldr
        {
          OFFSET 8.77824 -1.95073 1.46304
          CHANNELS 3 Zrotation Xrotation Yrotation
          JOINT lForeArm
          {
            OFFSET 28.1742 -1.7115 0.48768
            CHANNELS 3 Zrotation Xrotation Yrotation
            JOINT lHand
            {
              OFFSET 22.5879 0.773209 7.07136
              CHANNELS 3 Zrotation Xrotation Yrotation
              JOINT lThumb1
              {
                OFFSET 1.2192 -0.487915 3.41376
                CHANNELS 3 Zrotation Xrotation Yrotation
                JOINT lThumb2
                {
                  OFFSET 3.37035 -0.52449 3.41376
                  CHANNELS 3 Zrotation Xrotation Yrotation
                  End Site
                  {
                    OFFSET 1.78271 -1.18214 1.43049
                  }
                }
              }
              JOINT lIndex1
              {
                OFFSET 7.75947 0.938293 5.60832
                CHANNELS 3 Zrotation Xrotation Yrotation
                JOINT lIndex2
                {
                  OFFSET 2.54057 -0.884171 1.56538
                  CHANNELS 3 Zrotation Xrotation Yrotation
                  End Site
                  {
                    OFFSET 1.62519 -0.234802 1.16502
                  }
                }
              }
              JOINT lMid1
              {
                OFFSET 8.24714 1.18213 3.41376
                CHANNELS 3 Zrotation Xrotation Yrotation
                JOINT lMid2
                {
                  OFFSET 3.10165 -0.590103 1.0647
                  CHANNELS 3 Zrotation Xrotation Yrotation
                  End Site
                  {
                    OFFSET 2.48547 -0.328903 0.83742
                  }
                }
              }
              JOINT lRing1
              {
                OFFSET 8.82822 0.546677 1.51678
                CHANNELS 3 Zrotation Xrotation Yrotation
                JOINT lRing2
                {
                  OFFSET 2.60934 -0.819778 -0.0198488
                  CHANNELS 3 Zrotation Xrotation Yrotation
                  End Site
                  {
                    OFFSET 2.33842 -0.294052 0.168128
                  }
                }
              }
              JOINT lPinky1
              {
                OFFSET 8.27202 -0.0477905 -0.4584
                CHANNELS 3 Zrotation Xrotation Yrotation
                JOINT lPinky2
                {
                  OFFSET 1.82734 -0.647385 -0.700984
                  CHANNELS 3 Zrotation Xrotation Yrotation
                  End Site
                  {
                    OFFSET 1.69225 -0.51767 -0.607171
                  }
                }
              }
            }
          }
        }
      }
    }
  }
  JOINT rButtock
  {
    OFFSET -8.77824 4.35084 1.2192
    CHANNELS 3 Zrotation Xrotation Yrotation
    JOINT rThigh
    {
      OFFSET 0 -1.70687 -2.19456
      CHANNELS 3 Zrotation Xrotation Yrotation
      JOINT rShin
      {
        OFFSET 0 -36.8199 0.73152
        CHANNELS 3 Zrotation Xrotation Yrotation
        JOINT rFoot
        {
          OFFSET 0.73152 -45.1104 -5.12064
          CHANNELS 3 Zrotation Xrotation Yrotation
          End Site
          {
            OFFSET -1.1221 -3.69964 12.103
          }
        }
      }
    }
  }
  JOINT lButtock
  {
    OFFSET 8.77824 4.35084 1.2192
    CHANNELS 3 Zrotation Xrotation Yrotation
    JOINT lThigh
    {
      OFFSET 0 -1.70687 -2.19456
      CHANNELS 3 Zrotation Xrotation Yrotation
      JOINT lShin
      {
        OFFSET 0 -36.8199 0.73152
        CHANNELS 3 Zrotation Xrotation Yrotation
        JOINT lFoot
        {
          OFFSET -0.73152 -45.1104 -5.12064
          CHANNELS 3 Zrotation Xrotation Yrotation
          End Site
          {
            OFFSET 1.1221 -3.69964 12.103
          }
        }
      }
    }
  }
}
MOTION
Frames:	7
Frame Time:	0.00833333
0.0 0.0 0.0 0.0 0.0 0.0 0.0 0.0 0.0 0.0 0.0 0.0 0.0 0.0 0.0 0.0 0.0 0.0 0.0 0.0 0.0 0.0 0.0 0.0 0.0 0.0 0.0 0.0 0.0 0.0 0.0 0.0 0.0 0.0 0.0 0.0 0.0 0.0 0.0 0.0 0.0 0.0 0.0 0.0 0.0 0.0 0.0 0.0 0.0 0.0 0.0 0.0 0.0 0.0 0.0 0.0 0.0 0.0 0.0 0.0 0.0 0.0 0.0 0.0 0.0 0.0 0.0 0.0 0.0 0.0 0.0 0.0 0.0 0.0 0.0 0.0 0.0 0.0 0.0 0.0 0.0 0.0 0.0 0.0 0.0 0.0 0.0 0.0 0.0 0.0 0.0 0.0 0.0 0.0 0.0 0.0 0.0 0.0 0.0 0.0 0.0 0.0 0.0 0.0 0.0 0.0 0.0 0.0 0.0 0.0 0.0 0.0 0.0 0.0 0.0 0.0 0.0 0.0 0.0 0.0 0.0 0.0 0.0 0.0 0.0 0.0 0.0 0.0 0.0 0.0 0.0 0.0
97.509 83.3839 -2.307 164.394642 -85.716144 -156.595593 0.016246 -7.428376 -176.958221 -1.824073 -2.352058 178.299207 -11.436676 16.97768 -95.597477 17.726589 15.559817 90.807368 0.003768 -0.0 -0.003447 -0.001982 -0.0 0.002129 -44.92148 -86.287717 -66.529157 173.133885 75.902162 -170.411208 20.825692 -54.942899 22.097535 -13.837192 40.664338 3.836832 175.881005 -21.257844 88.494199 -150.249119 9.267132 82.412767 -12.940895 17.785138 8.596233 -74.764589 48.647335 56.317993 -82.840663 61.111518 74.532188 3.625676 -0.580175 0.082272 -0.020114 -1.724912 -0.544091 6.580376 32.244052 5.240705 -25.538928 -38.087161 -24.598656 -4.651437 -17.955522 -7.221828 143.620871 38.233433 -148.080601 -93.320693 -64.093184 -84.679303 -146.376426 -42.388328 -149.883246 82.021363 75.473319 -63.821962 93.743319 37.964097 -53.548898 -175.910185 -42.389295 -75.643666 151.353128 -17.158698 -121.132472 -0.776591 19.568307 5.422662 89.835334 60.701844 -81.262736 11.333089 33.392426 -9.310795 0.034077 5.254494 -1.651786 154.747058 11.967395 -170.236011 152.346254 37.910546 147.690307 162.694258 55.765016 146.86678 0.0 0.00066 -0.000455 0.560146 -12.360613 162.035233 -1.893848 -19.75907 -83.974467 -39.611815 65.262367 -41.038411 -0.007922 -0.001162 -0.003961 0.155975 -9.45865 -178.481386 -5.919944 -18.276138 -77.810912 -7.883819 30.919761 -98.735635
97.52300000000001 83.38029999999999 -2.3122 164.768421 -85.724512 -156.905436 -0.397491 -5.6656 -23.713765 4.172026 -3.088195 26.770888 -14.076805 13.128744 -47.285546 25.318271 1.546047 38.681002 -0.001834 0.0 -0.003234 -0.001834 0.0 -0.003234 4.240229 -44.742806 -8.64626 -118.836148 -35.627479 -143.215033 174.546304 41.718285 -158.184088 -11.776929 38.542075 3.154424 6.463033 -6.452934 -0.634155 -129.224177 -21.232558 116.123992 15.56 -27.950254 -5.749253 -155.530385 -9.497269 111.192219 -160.573463 -6.359384 143.197946 -153.954525 19.918716 138.340317 -145.12335 1.080234 -179.467674 11.12621 13.764012 -7.376279 -1.175555 -2.986125 -1.090321 -145.806872 6.964808 -142.51552 147.671738 29.084963 -152.475947 120.345083 43.435558 -93.424629 169.423519 -68.376559 -130.022141 -158.596253 -37.079209 -138.612867 166.745159 -4.418259 -89.781059 -3.737435 -53.362504 -12.47729 -5.920464 -10.174883 2.968072 -9.338046 4.950009 -0.074887 164.637521 -19.28384 -144.73303 7.536145 26.105844 -6.440367 145.118463 0.185878 179.185618 -11.200701 13.760772 7.377784 -0.099221 0.258392 -0.090222 75.98891 -54.87083 75.656413 -0.003261 0.000415 -0.004891 0.613507 -16.925384 -168.351183 -13.781501 -23.738362 -109.512826 -19.07868 62.130525 -72.577529 -179.994483 75.749266 -0.004539 179.397882 60.727092 -180.0 -6.248822 -24.503933 -109.388682 -52.937597 44.443857 -40.294983
97.527 83.3786 -2.3244000000000002 165.488736 -85.755275 -157.609763 -1.843923 -8.018725 -12.99543 6.024744 -5.500816 17.395313 -13.172117 13.269714 -17.718888 23.874014 -13.625295 6.435493 0.001424 -0.0 -0.002409 0.00286 0.0 0.002973 -155.417854 -2.951394 161.718512 -60.322293 12.862731 14.102402 42.20585 -7.671534 -33.196755 -176.378293 30.155338 146.219695 -176.59842 -14.213003 89.691934 106.032888 -67.369656 80.493542 -108.42889 34.160222 91.741734 -66.413553 54.036335 46.002248 173.125022 -66.297971 137.615331 -167.576106 -17.317825 143.935413 -0.02279 -1.726723 -0.543855 9.375619 12.724357 1.663251 -157.331642 57.246464 -150.510504 -21.797665 -36.870401 -22.48296 -0.035267 -0.2094 0.046434 93.472199 -11.819643 169.995293 168.848071 29.406354 153.502344 5.187408 27.451348 -1.854779 -114.539055 -50.245633 -55.721583 79.609989 34.003474 -34.483028 -37.216887 -57.917469 0.642967 -90.277768 -63.440375 -33.774401 -10.083307 -31.592288 3.252274 -13.055998 -30.062016 1.374226 145.119433 0.185684 179.186306 -11.587228 58.796005 1.664579 150.035308 28.965742 145.935524 146.892333 8.853116 141.055562 -179.998832 75.750033 -0.001205 179.678006 54.755867 -179.83662 1.712416 -28.132111 159.8154 -71.758082 -21.734006 7.711323 179.990726 75.748206 0.009568 178.836174 55.757012 -177.423383 -6.876615 -38.611901 -58.726016 -71.957513 -34.674835 -157.617894
97.527 83.3784 -2.3423 166.533875 -85.780333 -158.660922 -3.006525 -9.689021 -0.630045 6.414778 -8.103365 5.900558 -15.017481 33.298811 -139.896584 13.667213 45.177338 119.605507 0.004122 0.0 0.00033 -0.001212 -0.0 0.001913 -14.148265 43.061425 15.997158 52.430056 37.18451 55.508593 -41.755301 -2.103067 -22.325198 31.921626 -53.513187 21.694735 71.830212 -48.265111 25.791328 -60.909081 34.862208 25.764704 -166.82091 -43.973554 122.063614 -154.726207 -7.40213 118.916864 -0.057814 0.167851 0.032051 -33.291744 54.589662 27.984073 -72.963013 -72.143859 -89.989787 -150.589724 -15.234404 178.333553 6.640816 20.225863 5.928969 -21.766603 -38.939931 -22.191409 14.148197 43.061529 -15.996695 94.436117 -33.185382 -141.088483 -7.563863 -63.804629 69.209788 -157.524667 -35.251143 -139.493215 115.534049 32.702195 -68.304995 0.91582 -25.791603 -25.608425 46.208905 39.653473 -36.317331 89.343794 49.525272 -66.227371 8.416672 20.88053 -5.644575 158.307291 9.389379 -141.249822 145.108211 3.759871 -179.689527 -10.264654 66.567328 -0.239719 43.363494 -47.546766 42.161585 2.795519 -14.472111 5.865821 179.99678 75.749226 0.002203 179.037982 54.194996 0.0 9.852314 35.820795 94.399321 146.556307 68.906441 123.577755 179.957099 75.749223 0.033066 178.318804 54.550774 1.350312 7.32242 35.207487 53.64202 -93.373219 37.392265 -11.722934
97.54599999999999 83.37790000000001 -2.3532 167.157814 -85.778992 -159.283845 -0.964972 -13.659937 -111.997359 3.271912 6.259309 117.369795 -15.658685 34.114033 -139.84755 14.582651 46.805684 118.318165 0.003348 0.0 0.00266 -0.004025 0.0 -0.0007 -155.417463 -2.951723 161.717633 -82.359562 20.500409 9.664684 52.603645 -5.565154 -26.619607 -172.760406 40.403039 145.264084 93.028404 -51.084505 40.500932 -34.182898 4.917635 -7.849082 -123.869058 22.788438 104.456043 29.862323 -39.466038 -5.218156 -89.834966 60.703169 81.263254 -84.89815 64.089516 76.986937 -114.668335 66.732028 135.09314 -78.034271 -81.247091 -95.327531 -154.164922 45.105292 -148.909406 -147.858993 10.878612 -141.684709 150.119798 21.701375 -155.220352 146.254807 42.739571 -63.091582 -109.883115 -62.855453 -34.698012 -168.487155 -9.850585 -146.94151 78.03066 38.690203 -42.412394 -5.293321 -16.429059 -23.419061 160.100795 -33.161587 -122.70233 84.853936 56.629673 -68.122306 160.09929 -4.901022 -142.968711 -86.521569 -77.969649 -57.791647 145.120135 0.185577 179.186367 -11.945143 52.755884 2.719606 144.108693 8.781208 140.876041 85.022998 -51.988631 84.468668 0.0 -0.000958 0.000734 -1.092759 -22.731644 14.300298 21.190498 33.451548 77.162467 140.715714 67.518776 127.873451 179.99416 75.751629 0.003996 178.177865 53.143937 1.436435 8.678158 40.020461 75.147306 -174.661322 5.735092 69.043633
97.565 83.375 -2.3592999999999997 167.470121 -85.724459 -159.554044 -5.359731 -11.703263 65.359025 -2.99572 -10.980652 -61.268541 -20.968719 23.388932 -67.956806 40.772608 11.590585 48.618318 -0.001769 0.0 -0.003837 0.000318 0.0 0.001317 2.530231 -18.881186 -3.794035 -87.574719 10.24271 -155.781067 3.208087 -28.510948 -64.999648 161.068948 -32.496226 140.495061 -170.175228 -7.858365 89.943727 112.390123 -61.989419 82.666166 60.461249 -70.523823 15.711832 -1.29568 26.319415 2.657818 -125.644617 49.840041 115.273974 -166.779314 -16.007975 143.897414 -145.118678 0.267903 -179.212155 -154.424211 71.870576 169.601004 -48.627983 -49.123907 -47.367701 -127.698819 -28.622745 -126.688413 155.51217 -3.565263 -161.848707 87.020746 2.310678 -11.983888 42.037874 -54.941263 110.615688 -127.341443 -60.427593 -113.212817 -116.309824 -50.010297 -56.953709 -179.332108 -83.288667 -143.85352 46.208975 39.652086 -36.319025 10.989425 23.631775 -4.695604 161.517952 -9.304139 -143.626458 -167.276029 -63.975595 -132.410047 145.098324 -1.605026 178.623689 151.682326 -28.169321 174.687846 157.33094 57.246459 150.51098 -2.123743 1.44049 1.223644 179.988952 75.750442 0.009748 178.898753 53.101138 0.867566 -4.578298 34.188177 -49.948421 69.551057 12.081643 22.679632 -179.99846 75.748656 -0.0 178.587772 50.954084 -170.44821 -11.502153 -47.881498 -34.504446 -115.706685 -12.336887 -176.710595
